<?xml version="1.0" encoding="utf-8"?>
<!-- Generator: Adobe Illustrator 19.0.0, SVG Export Plug-In . SVG Version: 6.00 Build 0)  -->
<svg version="1.1" id="Warstwa_1" xmlns="http://www.w3.org/2000/svg" xmlns:xlink="http://www.w3.org/1999/xlink" x="0px" y="0px"
	 viewBox="492.7 -60.4 851 904.3" style="enable-background:new 492.7 -60.4 851 904.3;" xml:space="preserve">
<path d="M1343.7,286.9c0,19,0,37.6,0,56.3c0,7.8-0.1,15.6,0.1,23.4c0.1,2.9-0.7,5.3-2.4,7.7C1270.5,474.5,1199.8,574.8,1129,675
	c-6.3,8.9-12.6,17.9-18.9,26.9c-0.4,0.6-0.7,1.2-1.4,2.3c1.7,0.1,2.9,0.2,4.2,0.2c13.9,0,27.8-0.2,41.7,0.1
	c17.2,0.4,29.9-6.4,38.7-21.3c7-11.9,11.2-24.4,12.3-38.1c0.9-11,2.5-22,3.8-33.2c44.7,0,89.2,0,134,0c0,77.2,0,154.4,0,231.8
	c-162.4,0-324.7,0-487.2,0c-0.1-1.3-0.2-2.5-0.2-3.7c0-26,0-51.9,0.1-77.9c0-1.9,0.7-4.1,1.8-5.6c42.5-60.9,85-121.7,127.6-182.6
	c33.8-48.3,67.5-96.6,101.3-144.8c0.6-0.8,1-1.6,1.6-2.5c-0.4-0.2-0.7-0.6-1-0.6c-16.7,0.1-33.4-0.2-50.1,0.5
	c-10.9,0.5-19.9,5.5-26.6,14.6c-9.8,13.3-15.4,27.9-16.6,44.5c-0.8,10.9-2.5,15.5-3.8,26.6c-44.6,0-89.2,0-134,0
	c0-77,0-147.8,0-225.2C1018.5,286.9,1180.9,286.9,1343.7,286.9z M1018.9,751c0.7-1.1,1.1-1.7,1.5-2.3c9-12.8,18.1-25.7,27.1-38.5
	c39.2-55.5,78.3-111,117.5-166.5c43.5-61.7,87-123.3,130.5-185c0.6-0.9,1.5-1.9,1.5-2.8c0.1-7.5,0.1-15,0.1-22.7
	c-131.7,0-262.9,0-394.2,0c0,46.5,0,92.7,0,139.1c15.4,0,30.6,0,45.9,0c0.2-1.1,0.5-2,0.7-2.9c2.7-18.9,10.3-35.8,20.9-51.6
	c17.5-26,42.2-38,73.1-38.2c43.3-0.2,86.5,0,129.8,0c1.3,0,2.6,0,4.4,0c-0.9,1.4-1.4,2.3-2,3.2c-37.7,53.8-75.4,107.7-113,161.5
	c-52.8,75.6-105.7,151.2-158.6,226.9c-0.6,0.9-1.4,1.9-1.5,2.9c-0.1,7.6-0.1,15.3-0.1,22.9c131.7,0,263,0,394.2,0
	c0-46.4,0-92.6,0-138.6c-15.5,0-30.7,0-45.9,0c-0.3,1-0.6,1.8-0.7,2.7c-1.8,13.5-6.3,26.2-12.7,38.2c-6.9,12.7-14.8,24.7-26.4,33.7
	c-16.1,12.5-34.6,18-54.8,18.1c-33.5,0.1-67,0-100.6,0C1043.7,751,1031.7,751,1018.9,751z"/>
<path d="M1343.7-60.4c-206.4,0-645,0-851.1,0c0,47.7,0,95,0,142.6c15.3,0,30.3,0.1,45.2,0c7.2-0.1,13.8,1.9,20.2,4.9
	c2.5,1.1,3.6,2.8,3.7,5.5c0.7,12.7,2,25.4,2,38.2c0.1,174.1,0.1,348.2,0,522.3c0,12.6-1.3,25.2-2,37.8c-0.1,2.6-1.2,4.4-3.7,5.5
	c-6.2,2.9-12.5,4.9-19.4,4.8c-14-0.1-28,0-42,0c-1.3,0-2.6,0.1-3.9,0.2c0,47.8,0,95.2,0,142.5c111.2,0,222,0,332.9,0
	c0-47.6,0-94.9,0-142.7c-1.5,0-2.8,0-4.2,0c-14,0-28,0-42,0c-7.2,0-13.8-1.9-20-5.4c-1.3-0.7-2.5-2.5-2.7-3.9
	c-0.9-8.6-2.1-17.2-2.1-25.7c-0.2-58.4-0.2-132.7-0.2-191.1c0-1.2,0.1-2.4,0.2-3.6c0.6-0.2,0.9-0.3,1.3-0.3
	c24.2,0,78.5,40.9,102.7,41.1l-1.9-225.2c-22.9-0.2-75.7,41-98.6,41c-1.1,0-2.2-0.1-3.3-0.2c0-79.4,0-142.5,0-221.8
	c1.2,0,2.1,0,2.9,0c45.5,0,91,0,136.5,0c7,0,172.4,0.5,179.4,0.9c11.8,0.6,21.2,5.6,26.9,16.2c4.8,8.9,9.5,17.8,13.7,27
	c10.3,22.8,16.6,47,23.6,70.9c0.8,2.6,1.7,3.6,3.8,3.9c65.4,0,201.1-0.1,202.2-0.2C1343.7,129.4,1343.7,34.5,1343.7-60.4z
	 M697.7,437.3c0,12.9,0,79.6,0,92.5c0,44.7,0,91,0.2,136.6c0,10.1,1.1,19.2,2,27.2c0.2,1.5,0.3,2.9,0.5,4.4
	c2.1,19.4,14,37.5,31.1,47.2c11.8,6.7,24.4,10.8,37.4,12.2v29.9H549.4v-29.9c10.8-1.2,21.5-4.4,32.6-9.5
	c21.5-10,35.1-30.2,36.4-53.9c0.2-3.7,0.5-7.6,0.8-11.6c0.6-8.8,1.3-18.7,1.3-29.1c0.1-173.2,0.1-349,0-522.4
	c0-10.5-0.7-20.1-1.3-29.4c-0.3-4.1-0.6-7.9-0.8-11.7c-1.3-23.6-14.8-43.7-36.3-53.8c-11-5.2-21.8-8.4-32.8-9.6V-3.7H1287v171.8
	c-26.8,0-62.5,0-105.7,0.1c-4.3-13.6-9.2-27.5-15.5-41.5c-5-11-10.3-21.1-15.4-30.5c-14.8-27.4-41.7-44.1-73.8-45.8
	c-9.6-0.5-180.7-1-182.4-1c-23.2,0-46.4-0.1-69.6-0.1h-69.9H698v309.3l93.1-0.4c64.9,0,60.6,33.5,60.6,33.5l0,0
	c0,0,4.3,45.4-61.2,45.4L697.7,437.3z"/>
</svg>
